<svg width="537" height="146" viewBox="0 0 537 146" fill="none" xmlns="http://www.w3.org/2000/svg">
<g filter="url(#filter0_d_5_30)">
<mask id="path-1-outside-1_5_30" maskUnits="userSpaceOnUse" x="3" y="44" width="200" height="65" fill="black">
<rect fill="white" x="3" y="44" width="200" height="65"/>
<path d="M5.63636 93V46.4545H21.9091C25.1515 46.4545 27.8258 47.0152 29.9318 48.1364C32.0379 49.2424 33.6061 50.7348 34.6364 52.6136C35.6667 54.4773 36.1818 56.5455 36.1818 58.8182C36.1818 60.8182 35.8258 62.4697 35.1136 63.7727C34.4167 65.0758 33.4924 66.1061 32.3409 66.8636C31.2045 67.6212 29.9697 68.1818 28.6364 68.5455V69C30.0606 69.0909 31.4924 69.5909 32.9318 70.5C34.3712 71.4091 35.5758 72.7121 36.5455 74.4091C37.5152 76.1061 38 78.1818 38 80.6364C38 82.9697 37.4697 85.0682 36.4091 86.9318C35.3485 88.7955 33.6742 90.2727 31.3864 91.3636C29.0985 92.4545 26.1212 93 22.4545 93H5.63636ZM11.2727 88H22.4545C26.1364 88 28.75 87.2879 30.2955 85.8636C31.8561 84.4242 32.6364 82.6818 32.6364 80.6364C32.6364 79.0606 32.2348 77.6061 31.4318 76.2727C30.6288 74.9242 29.4848 73.8485 28 73.0455C26.5152 72.2273 24.7576 71.8182 22.7273 71.8182H11.2727V88ZM11.2727 66.9091H21.7273C23.4242 66.9091 24.9545 66.5758 26.3182 65.9091C27.697 65.2424 28.7879 64.303 29.5909 63.0909C30.4091 61.8788 30.8182 60.4545 30.8182 58.8182C30.8182 56.7727 30.1061 55.0379 28.6818 53.6136C27.2576 52.1742 25 51.4545 21.9091 51.4545H11.2727V66.9091ZM68.5341 78.7273V58.0909H73.8977V93H68.5341V87.0909H68.1705C67.3523 88.8636 66.0795 90.3712 64.3523 91.6136C62.625 92.8409 60.4432 93.4545 57.8068 93.4545C55.625 93.4545 53.6856 92.9773 51.9886 92.0227C50.2917 91.053 48.9583 89.5985 47.9886 87.6591C47.0189 85.7045 46.5341 83.2424 46.5341 80.2727V58.0909H51.8977V79.9091C51.8977 82.4545 52.6098 84.4848 54.0341 86C55.4735 87.5152 57.3068 88.2727 59.5341 88.2727C60.8674 88.2727 62.2235 87.9318 63.6023 87.25C64.9962 86.5682 66.1629 85.5227 67.1023 84.1136C68.0568 82.7045 68.5341 80.9091 68.5341 78.7273ZM83.7216 93V58.0909H88.9034V63.3636H89.267C89.9034 61.6364 91.0549 60.2348 92.7216 59.1591C94.3883 58.0833 96.267 57.5455 98.358 57.5455C98.7519 57.5455 99.2443 57.553 99.8352 57.5682C100.426 57.5833 100.873 57.6061 101.176 57.6364V63.0909C100.994 63.0455 100.578 62.9773 99.9261 62.8864C99.2898 62.7803 98.6155 62.7273 97.9034 62.7273C96.2064 62.7273 94.6913 63.0833 93.358 63.7955C92.0398 64.4924 90.9943 65.4621 90.2216 66.7045C89.464 67.9318 89.0852 69.3333 89.0852 70.9091V93H83.7216ZM120.562 106.818C117.972 106.818 115.744 106.485 113.881 105.818C112.017 105.167 110.464 104.303 109.222 103.227C107.994 102.167 107.017 101.03 106.29 99.8182L110.562 96.8182C111.047 97.4545 111.661 98.1818 112.403 99C113.146 99.8333 114.161 100.553 115.449 101.159C116.752 101.78 118.456 102.091 120.562 102.091C123.381 102.091 125.706 101.409 127.54 100.045C129.373 98.6818 130.29 96.5455 130.29 93.6364V86.5455H129.835C129.441 87.1818 128.881 87.9697 128.153 88.9091C127.441 89.8333 126.411 90.6591 125.062 91.3864C123.729 92.0985 121.926 92.4545 119.653 92.4545C116.835 92.4545 114.305 91.7879 112.062 90.4545C109.835 89.1212 108.07 87.1818 106.767 84.6364C105.479 82.0909 104.835 79 104.835 75.3636C104.835 71.7879 105.464 68.6742 106.722 66.0227C107.979 63.3561 109.729 61.2955 111.972 59.8409C114.214 58.3712 116.805 57.6364 119.744 57.6364C122.017 57.6364 123.82 58.0152 125.153 58.7727C126.502 59.5152 127.532 60.3636 128.244 61.3182C128.972 62.2576 129.532 63.0303 129.926 63.6364H130.472V58.0909H135.653V94C135.653 97 134.972 99.4394 133.608 101.318C132.259 103.212 130.441 104.598 128.153 105.477C125.881 106.371 123.35 106.818 120.562 106.818ZM120.381 87.6364C122.532 87.6364 124.35 87.1439 125.835 86.1591C127.32 85.1742 128.449 83.7576 129.222 81.9091C129.994 80.0606 130.381 77.8485 130.381 75.2727C130.381 72.7576 130.002 70.5379 129.244 68.6136C128.487 66.6894 127.366 65.1818 125.881 64.0909C124.396 63 122.563 62.4545 120.381 62.4545C118.108 62.4545 116.214 63.0303 114.699 64.1818C113.199 65.3333 112.07 66.8788 111.312 68.8182C110.57 70.7576 110.199 72.9091 110.199 75.2727C110.199 77.697 110.578 79.8409 111.335 81.7045C112.108 83.553 113.244 85.0076 114.744 86.0682C116.259 87.1136 118.138 87.6364 120.381 87.6364ZM160.108 93.7273C156.744 93.7273 153.843 92.9848 151.403 91.5C148.979 90 147.108 87.9091 145.79 85.2273C144.487 82.5303 143.835 79.3939 143.835 75.8182C143.835 72.2424 144.487 69.0909 145.79 66.3636C147.108 63.6212 148.941 61.4848 151.29 59.9545C153.653 58.4091 156.411 57.6364 159.562 57.6364C161.381 57.6364 163.176 57.9394 164.949 58.5455C166.722 59.1515 168.335 60.1364 169.79 61.5C171.244 62.8485 172.403 64.6364 173.267 66.8636C174.131 69.0909 174.562 71.8333 174.562 75.0909V77.3636H147.653V72.7273H169.108C169.108 70.7576 168.714 69 167.926 67.4545C167.153 65.9091 166.047 64.6894 164.608 63.7955C163.184 62.9015 161.502 62.4545 159.562 62.4545C157.426 62.4545 155.578 62.9848 154.017 64.0455C152.472 65.0909 151.282 66.4545 150.449 68.1364C149.616 69.8182 149.199 71.6212 149.199 73.5455V76.6364C149.199 79.2727 149.653 81.5076 150.562 83.3409C151.487 85.1591 152.767 86.5455 154.403 87.5C156.04 88.4394 157.941 88.9091 160.108 88.9091C161.517 88.9091 162.79 88.7121 163.926 88.3182C165.078 87.9091 166.07 87.303 166.903 86.5C167.737 85.6818 168.381 84.6667 168.835 83.4545L174.017 84.9091C173.472 86.6667 172.555 88.2121 171.267 89.5455C169.979 90.8636 168.388 91.8939 166.494 92.6364C164.6 93.3636 162.472 93.7273 160.108 93.7273ZM182.722 93V58.0909H187.903V63.3636H188.267C188.903 61.6364 190.055 60.2348 191.722 59.1591C193.388 58.0833 195.267 57.5455 197.358 57.5455C197.752 57.5455 198.244 57.553 198.835 57.5682C199.426 57.5833 199.873 57.6061 200.176 57.6364V63.0909C199.994 63.0455 199.578 62.9773 198.926 62.8864C198.29 62.7803 197.616 62.7273 196.903 62.7273C195.206 62.7273 193.691 63.0833 192.358 63.7955C191.04 64.4924 189.994 65.4621 189.222 66.7045C188.464 67.9318 188.085 69.3333 188.085 70.9091V93H182.722Z"/>
</mask>
<path d="M5.63636 93V46.4545H21.9091C25.1515 46.4545 27.8258 47.0152 29.9318 48.1364C32.0379 49.2424 33.6061 50.7348 34.6364 52.6136C35.6667 54.4773 36.1818 56.5455 36.1818 58.8182C36.1818 60.8182 35.8258 62.4697 35.1136 63.7727C34.4167 65.0758 33.4924 66.1061 32.3409 66.8636C31.2045 67.6212 29.9697 68.1818 28.6364 68.5455V69C30.0606 69.0909 31.4924 69.5909 32.9318 70.5C34.3712 71.4091 35.5758 72.7121 36.5455 74.4091C37.5152 76.1061 38 78.1818 38 80.6364C38 82.9697 37.4697 85.0682 36.4091 86.9318C35.3485 88.7955 33.6742 90.2727 31.3864 91.3636C29.0985 92.4545 26.1212 93 22.4545 93H5.63636ZM11.2727 88H22.4545C26.1364 88 28.75 87.2879 30.2955 85.8636C31.8561 84.4242 32.6364 82.6818 32.6364 80.6364C32.6364 79.0606 32.2348 77.6061 31.4318 76.2727C30.6288 74.9242 29.4848 73.8485 28 73.0455C26.5152 72.2273 24.7576 71.8182 22.7273 71.8182H11.2727V88ZM11.2727 66.9091H21.7273C23.4242 66.9091 24.9545 66.5758 26.3182 65.9091C27.697 65.2424 28.7879 64.303 29.5909 63.0909C30.4091 61.8788 30.8182 60.4545 30.8182 58.8182C30.8182 56.7727 30.1061 55.0379 28.6818 53.6136C27.2576 52.1742 25 51.4545 21.9091 51.4545H11.2727V66.9091ZM68.5341 78.7273V58.0909H73.8977V93H68.5341V87.0909H68.1705C67.3523 88.8636 66.0795 90.3712 64.3523 91.6136C62.625 92.8409 60.4432 93.4545 57.8068 93.4545C55.625 93.4545 53.6856 92.9773 51.9886 92.0227C50.2917 91.053 48.9583 89.5985 47.9886 87.6591C47.0189 85.7045 46.5341 83.2424 46.5341 80.2727V58.0909H51.8977V79.9091C51.8977 82.4545 52.6098 84.4848 54.0341 86C55.4735 87.5152 57.3068 88.2727 59.5341 88.2727C60.8674 88.2727 62.2235 87.9318 63.6023 87.25C64.9962 86.5682 66.1629 85.5227 67.1023 84.1136C68.0568 82.7045 68.5341 80.9091 68.5341 78.7273ZM83.7216 93V58.0909H88.9034V63.3636H89.267C89.9034 61.6364 91.0549 60.2348 92.7216 59.1591C94.3883 58.0833 96.267 57.5455 98.358 57.5455C98.7519 57.5455 99.2443 57.553 99.8352 57.5682C100.426 57.5833 100.873 57.6061 101.176 57.6364V63.0909C100.994 63.0455 100.578 62.9773 99.9261 62.8864C99.2898 62.7803 98.6155 62.7273 97.9034 62.7273C96.2064 62.7273 94.6913 63.0833 93.358 63.7955C92.0398 64.4924 90.9943 65.4621 90.2216 66.7045C89.464 67.9318 89.0852 69.3333 89.0852 70.9091V93H83.7216ZM120.562 106.818C117.972 106.818 115.744 106.485 113.881 105.818C112.017 105.167 110.464 104.303 109.222 103.227C107.994 102.167 107.017 101.03 106.29 99.8182L110.562 96.8182C111.047 97.4545 111.661 98.1818 112.403 99C113.146 99.8333 114.161 100.553 115.449 101.159C116.752 101.78 118.456 102.091 120.562 102.091C123.381 102.091 125.706 101.409 127.54 100.045C129.373 98.6818 130.29 96.5455 130.29 93.6364V86.5455H129.835C129.441 87.1818 128.881 87.9697 128.153 88.9091C127.441 89.8333 126.411 90.6591 125.062 91.3864C123.729 92.0985 121.926 92.4545 119.653 92.4545C116.835 92.4545 114.305 91.7879 112.062 90.4545C109.835 89.1212 108.07 87.1818 106.767 84.6364C105.479 82.0909 104.835 79 104.835 75.3636C104.835 71.7879 105.464 68.6742 106.722 66.0227C107.979 63.3561 109.729 61.2955 111.972 59.8409C114.214 58.3712 116.805 57.6364 119.744 57.6364C122.017 57.6364 123.82 58.0152 125.153 58.7727C126.502 59.5152 127.532 60.3636 128.244 61.3182C128.972 62.2576 129.532 63.0303 129.926 63.6364H130.472V58.0909H135.653V94C135.653 97 134.972 99.4394 133.608 101.318C132.259 103.212 130.441 104.598 128.153 105.477C125.881 106.371 123.35 106.818 120.562 106.818ZM120.381 87.6364C122.532 87.6364 124.35 87.1439 125.835 86.1591C127.32 85.1742 128.449 83.7576 129.222 81.9091C129.994 80.0606 130.381 77.8485 130.381 75.2727C130.381 72.7576 130.002 70.5379 129.244 68.6136C128.487 66.6894 127.366 65.1818 125.881 64.0909C124.396 63 122.563 62.4545 120.381 62.4545C118.108 62.4545 116.214 63.0303 114.699 64.1818C113.199 65.3333 112.07 66.8788 111.312 68.8182C110.57 70.7576 110.199 72.9091 110.199 75.2727C110.199 77.697 110.578 79.8409 111.335 81.7045C112.108 83.553 113.244 85.0076 114.744 86.0682C116.259 87.1136 118.138 87.6364 120.381 87.6364ZM160.108 93.7273C156.744 93.7273 153.843 92.9848 151.403 91.5C148.979 90 147.108 87.9091 145.79 85.2273C144.487 82.5303 143.835 79.3939 143.835 75.8182C143.835 72.2424 144.487 69.0909 145.79 66.3636C147.108 63.6212 148.941 61.4848 151.29 59.9545C153.653 58.4091 156.411 57.6364 159.562 57.6364C161.381 57.6364 163.176 57.9394 164.949 58.5455C166.722 59.1515 168.335 60.1364 169.79 61.5C171.244 62.8485 172.403 64.6364 173.267 66.8636C174.131 69.0909 174.562 71.8333 174.562 75.0909V77.3636H147.653V72.7273H169.108C169.108 70.7576 168.714 69 167.926 67.4545C167.153 65.9091 166.047 64.6894 164.608 63.7955C163.184 62.9015 161.502 62.4545 159.562 62.4545C157.426 62.4545 155.578 62.9848 154.017 64.0455C152.472 65.0909 151.282 66.4545 150.449 68.1364C149.616 69.8182 149.199 71.6212 149.199 73.5455V76.6364C149.199 79.2727 149.653 81.5076 150.562 83.3409C151.487 85.1591 152.767 86.5455 154.403 87.5C156.04 88.4394 157.941 88.9091 160.108 88.9091C161.517 88.9091 162.79 88.7121 163.926 88.3182C165.078 87.9091 166.07 87.303 166.903 86.5C167.737 85.6818 168.381 84.6667 168.835 83.4545L174.017 84.9091C173.472 86.6667 172.555 88.2121 171.267 89.5455C169.979 90.8636 168.388 91.8939 166.494 92.6364C164.6 93.3636 162.472 93.7273 160.108 93.7273ZM182.722 93V58.0909H187.903V63.3636H188.267C188.903 61.6364 190.055 60.2348 191.722 59.1591C193.388 58.0833 195.267 57.5455 197.358 57.5455C197.752 57.5455 198.244 57.553 198.835 57.5682C199.426 57.5833 199.873 57.6061 200.176 57.6364V63.0909C199.994 63.0455 199.578 62.9773 198.926 62.8864C198.29 62.7803 197.616 62.7273 196.903 62.7273C195.206 62.7273 193.691 63.0833 192.358 63.7955C191.04 64.4924 189.994 65.4621 189.222 66.7045C188.464 67.9318 188.085 69.3333 188.085 70.9091V93H182.722Z" fill="#F8FD11"/>
<path d="M5.63636 93H3.63636V95H5.63636V93ZM5.63636 46.4545V44.4545H3.63636V46.4545H5.63636ZM29.9318 48.1364L28.9919 49.9018L29.0019 49.907L29.9318 48.1364ZM34.6364 52.6136L32.8827 53.5753L32.886 53.5813L34.6364 52.6136ZM35.1136 63.7727L33.3586 62.8136L33.3543 62.8215L33.3501 62.8294L35.1136 63.7727ZM32.3409 66.8636L31.2417 65.1928L31.2315 65.1995L32.3409 66.8636ZM28.6364 68.5455L28.1101 66.6159L26.6364 67.0179V68.5455H28.6364ZM28.6364 69H26.6364V70.8764L28.509 70.9959L28.6364 69ZM32.9318 70.5L31.8638 72.191H31.8638L32.9318 70.5ZM36.4091 86.9318L38.1473 87.9211L36.4091 86.9318ZM31.3864 91.3636L30.5256 89.5584H30.5256L31.3864 91.3636ZM11.2727 88H9.27273V90H11.2727V88ZM30.2955 85.8636L31.6508 87.3344L31.6514 87.3338L30.2955 85.8636ZM31.4318 76.2727L29.7134 77.296L29.7186 77.3046L31.4318 76.2727ZM28 73.0455L27.0348 74.7971L27.0417 74.8009L27.0486 74.8047L28 73.0455ZM11.2727 71.8182V69.8182H9.27273V71.8182H11.2727ZM11.2727 66.9091H9.27273V68.9091H11.2727V66.9091ZM26.3182 65.9091L25.4476 64.1085L25.4398 64.1123L26.3182 65.9091ZM29.5909 63.0909L27.9332 61.972L27.9284 61.9791L27.9236 61.9863L29.5909 63.0909ZM28.6818 53.6136L27.2601 55.0204L27.2676 55.0278L28.6818 53.6136ZM11.2727 51.4545V49.4545H9.27273V51.4545H11.2727ZM7.63636 93V46.4545H3.63636V93H7.63636ZM5.63636 48.4545H21.9091V44.4545H5.63636V48.4545ZM21.9091 48.4545C24.936 48.4545 27.2603 48.9799 28.992 49.9018L30.8717 46.371C28.3912 45.0504 25.367 44.4545 21.9091 44.4545V48.4545ZM29.0019 49.907C30.7997 50.8512 32.062 52.0787 32.8827 53.5753L36.39 51.652C35.1501 49.391 33.2761 47.6337 30.8617 46.3657L29.0019 49.907ZM32.886 53.5813C33.7416 55.1288 34.1818 56.8604 34.1818 58.8182H38.1818C38.1818 56.2305 37.5918 53.8257 36.3867 51.646L32.886 53.5813ZM34.1818 58.8182C34.1818 60.5945 33.8639 61.8891 33.3586 62.8136L36.8686 64.7319C37.7876 63.0503 38.1818 61.0419 38.1818 58.8182H34.1818ZM33.3501 62.8294C32.7987 63.8602 32.0946 64.6317 31.2417 65.1928L33.4401 68.5345C34.8903 67.5804 36.0346 66.2914 36.8772 64.716L33.3501 62.8294ZM31.2315 65.1995C30.2762 65.8364 29.2386 66.3082 28.1101 66.6159L29.1626 70.475C30.7008 70.0555 32.1329 69.406 33.4503 68.5277L31.2315 65.1995ZM26.6364 68.5455V69H30.6364V68.5455H26.6364ZM28.509 70.9959C29.5402 71.0618 30.653 71.4262 31.8638 72.191L33.9998 68.809C32.3319 67.7556 30.581 67.1201 28.7638 67.0041L28.509 70.9959ZM31.8638 72.191C32.9881 72.901 33.9774 73.9461 34.809 75.4014L38.2819 73.4168C37.1741 71.4781 35.7543 69.9172 33.9998 68.809L31.8638 72.191ZM34.809 75.4014C35.5671 76.7281 36 78.4421 36 80.6364H40C40 77.9215 39.4632 75.484 38.2819 73.4168L34.809 75.4014ZM36 80.6364C36 82.6543 35.545 84.4066 34.6709 85.9426L38.1473 87.9211C39.3944 85.7297 40 83.2851 40 80.6364H36ZM34.6709 85.9426C33.8472 87.39 32.5133 88.6106 30.5256 89.5584L32.2472 93.1689C34.8352 91.9349 36.8498 90.2009 38.1473 87.9211L34.6709 85.9426ZM30.5256 89.5584C28.5991 90.477 25.9465 91 22.4545 91V95C26.296 95 29.5979 94.4321 32.2472 93.1689L30.5256 89.5584ZM22.4545 91H5.63636V95H22.4545V91ZM11.2727 90H22.4545V86H11.2727V90ZM22.4545 90C26.2935 90 29.5431 89.2767 31.6508 87.3344L28.9401 84.3929C27.9569 85.299 25.9793 86 22.4545 86V90ZM31.6514 87.3338C33.6049 85.532 34.6364 83.2638 34.6364 80.6364H30.6364C30.6364 82.0998 30.1072 83.3165 28.9395 84.3935L31.6514 87.3338ZM34.6364 80.6364C34.6364 78.7017 34.1382 76.8897 33.1451 75.2409L29.7186 77.3046C30.3315 78.3224 30.6364 79.4195 30.6364 80.6364H34.6364ZM33.1502 75.2494C32.1486 73.5675 30.7288 72.2475 28.9514 71.2862L27.0486 74.8047C28.2409 75.4495 29.109 76.281 29.7134 77.296L33.1502 75.2494ZM28.9652 71.2938C27.1315 70.2833 25.0286 69.8182 22.7273 69.8182V73.8182C24.4866 73.8182 25.8988 74.1712 27.0348 74.7971L28.9652 71.2938ZM22.7273 69.8182H11.2727V73.8182H22.7273V69.8182ZM9.27273 71.8182V88H13.2727V71.8182H9.27273ZM11.2727 68.9091H21.7273V64.9091H11.2727V68.9091ZM21.7273 68.9091C23.6924 68.9091 25.5286 68.5213 27.1966 67.7059L25.4398 64.1123C24.3805 64.6302 23.156 64.9091 21.7273 64.9091V68.9091ZM27.1888 67.7097C28.8728 66.8954 30.2462 65.7231 31.2582 64.1955L27.9236 61.9863C27.3296 62.8829 26.5211 63.5895 25.4476 64.1085L27.1888 67.7097ZM31.2486 64.2099C32.3159 62.6286 32.8182 60.8041 32.8182 58.8182H28.8182C28.8182 60.105 28.5023 61.1289 27.9332 61.972L31.2486 64.2099ZM32.8182 58.8182C32.8182 56.2515 31.9018 54.0052 30.096 52.1994L27.2676 55.0278C28.3103 56.0705 28.8182 57.2939 28.8182 58.8182H32.8182ZM30.1035 52.2069C28.1458 50.2284 25.2578 49.4545 21.9091 49.4545V53.4545C24.7423 53.4545 26.3693 54.12 27.2601 55.0203L30.1035 52.2069ZM21.9091 49.4545H11.2727V53.4545H21.9091V49.4545ZM9.27273 51.4545V66.9091H13.2727V51.4545H9.27273ZM68.5341 58.0909V56.0909H66.5341V58.0909H68.5341ZM73.8977 58.0909H75.8977V56.0909H73.8977V58.0909ZM73.8977 93V95H75.8977V93H73.8977ZM68.5341 93H66.5341V95H68.5341V93ZM68.5341 87.0909H70.5341V85.0909H68.5341V87.0909ZM68.1705 87.0909V85.0909H66.8908L66.3545 86.2528L68.1705 87.0909ZM64.3523 91.6136L65.5107 93.244L65.5201 93.2372L64.3523 91.6136ZM51.9886 92.0227L50.9963 93.7593L51.0081 93.7659L51.9886 92.0227ZM47.9886 87.6591L46.197 88.548L46.1998 88.5535L47.9886 87.6591ZM46.5341 58.0909V56.0909H44.5341V58.0909H46.5341ZM51.8977 58.0909H53.8977V56.0909H51.8977V58.0909ZM54.0341 86L52.5768 87.3698L52.5841 87.3775L54.0341 86ZM63.6023 87.25L62.7235 85.4534L62.7157 85.4572L63.6023 87.25ZM67.1023 84.1136L65.4464 82.9919L65.4423 82.9981L65.4382 83.0042L67.1023 84.1136ZM70.5341 78.7273V58.0909H66.5341V78.7273H70.5341ZM68.5341 60.0909H73.8977V56.0909H68.5341V60.0909ZM71.8977 58.0909V93H75.8977V58.0909H71.8977ZM73.8977 91H68.5341V95H73.8977V91ZM70.5341 93V87.0909H66.5341V93H70.5341ZM68.5341 85.0909H68.1705V89.0909H68.5341V85.0909ZM66.3545 86.2528C65.6938 87.6845 64.6574 88.9305 63.1844 89.99L65.5201 93.2372C67.5017 91.8119 69.0108 90.0428 69.9864 87.929L66.3545 86.2528ZM63.1939 89.9833C61.8799 90.9169 60.1305 91.4545 57.8068 91.4545V95.4545C60.7559 95.4545 63.3701 94.7649 65.5107 93.244L63.1939 89.9833ZM57.8068 91.4545C55.9262 91.4545 54.332 91.0462 52.9692 90.2796L51.0081 93.7659C53.0392 94.9084 55.3238 95.4545 57.8068 95.4545V91.4545ZM52.9809 90.2862C51.6638 89.5336 50.5907 88.391 49.7775 86.7647L46.1998 88.5535C47.326 90.8059 48.9196 92.5725 50.9964 93.7592L52.9809 90.2862ZM49.7803 86.7702C48.9879 85.1731 48.5341 83.0397 48.5341 80.2727H44.5341C44.5341 83.4452 45.05 86.236 46.197 88.548L49.7803 86.7702ZM48.5341 80.2727V58.0909H44.5341V80.2727H48.5341ZM46.5341 60.0909H51.8977V56.0909H46.5341V60.0909ZM49.8977 58.0909V79.9091H53.8977V58.0909H49.8977ZM49.8977 79.9091C49.8977 82.8434 50.7295 85.4046 52.5768 87.3698L55.4913 84.6302C54.4902 83.5651 53.8977 82.0657 53.8977 79.9091H49.8977ZM52.5841 87.3775C54.4279 89.3184 56.7989 90.2727 59.5341 90.2727V86.2727C57.8148 86.2727 56.519 85.7119 55.4841 84.6225L52.5841 87.3775ZM59.5341 90.2727C61.219 90.2727 62.8768 89.84 64.4888 89.0428L62.7157 85.4572C61.5702 86.0237 60.5159 86.2727 59.5341 86.2727V90.2727ZM64.481 89.0466C66.2216 88.1952 67.6491 86.8989 68.7664 85.223L65.4382 83.0042C64.6767 84.1465 63.7708 84.9411 62.7235 85.4534L64.481 89.0466ZM68.7581 85.2353C69.9925 83.4131 70.5341 81.1968 70.5341 78.7273H66.5341C66.5341 80.6214 66.1211 81.996 65.4464 82.9919L68.7581 85.2353ZM83.7216 93H81.7216V95H83.7216V93ZM83.7216 58.0909V56.0909H81.7216V58.0909H83.7216ZM88.9034 58.0909H90.9034V56.0909H88.9034V58.0909ZM88.9034 63.3636H86.9034V65.3636H88.9034V63.3636ZM89.267 63.3636V65.3636H90.6616L91.1437 64.055L89.267 63.3636ZM92.7216 59.1591L91.637 57.4787L91.637 57.4787L92.7216 59.1591ZM101.176 57.6364H103.176V55.8264L101.375 55.6463L101.176 57.6364ZM101.176 63.0909L100.691 65.0312L103.176 65.6525V63.0909H101.176ZM99.9261 62.8864L99.5973 64.8592L99.6235 64.8635L99.6497 64.8672L99.9261 62.8864ZM93.358 63.7955L94.2928 65.5635L94.3002 65.5596L93.358 63.7955ZM90.2216 66.7045L88.5233 65.6483L88.5197 65.654L90.2216 66.7045ZM89.0852 93V95H91.0852V93H89.0852ZM85.7216 93V58.0909H81.7216V93H85.7216ZM83.7216 60.0909H88.9034V56.0909H83.7216V60.0909ZM86.9034 58.0909V63.3636H90.9034V58.0909H86.9034ZM88.9034 65.3636H89.267V61.3636H88.9034V65.3636ZM91.1437 64.055C91.6183 62.7669 92.4737 61.6995 93.8062 60.8395L91.637 57.4787C89.6361 58.7702 88.1885 60.5059 87.3904 62.6722L91.1437 64.055ZM93.8062 60.8395C95.1317 59.9839 96.63 59.5455 98.358 59.5455V55.5455C95.9041 55.5455 93.6448 56.1828 91.637 57.4787L93.8062 60.8395ZM98.358 59.5455C98.7286 59.5455 99.2026 59.5526 99.784 59.5675L99.8865 55.5688C99.286 55.5534 98.7751 55.5455 98.358 55.5455V59.5455ZM99.784 59.5675C100.362 59.5823 100.75 59.6037 100.977 59.6264L101.375 55.6463C100.997 55.6084 100.49 55.5843 99.8865 55.5688L99.784 59.5675ZM99.1761 57.6364V63.0909H103.176V57.6364H99.1761ZM101.661 61.1506C101.355 61.0741 100.824 60.9923 100.203 60.9056L99.6497 64.8672C99.9675 64.9115 100.217 64.9489 100.404 64.9794C100.498 64.9947 100.569 65.0073 100.623 65.0174C100.68 65.0283 100.698 65.033 100.691 65.0312L101.661 61.1506ZM100.255 60.9136C99.4994 60.7877 98.7145 60.7273 97.9034 60.7273V64.7273C98.5166 64.7273 99.0802 64.7729 99.5973 64.8592L100.255 60.9136ZM97.9034 60.7273C95.9187 60.7273 94.073 61.1462 92.4157 62.0313L94.3002 65.5596C95.3095 65.0205 96.4942 64.7273 97.9034 64.7273V60.7273ZM92.4231 62.0274C90.7982 62.8865 89.4867 64.0992 88.5233 65.6483L91.9199 67.7608C92.5019 66.825 93.2813 66.0983 94.2928 65.5635L92.4231 62.0274ZM88.5197 65.654C87.5494 67.226 87.0852 68.9978 87.0852 70.9091H91.0852C91.0852 69.6688 91.3787 68.6377 91.9235 67.7551L88.5197 65.654ZM87.0852 70.9091V93H91.0852V70.9091H87.0852ZM89.0852 91H83.7216V95H89.0852V91ZM113.881 105.818L114.554 103.935L114.548 103.933L114.541 103.93L113.881 105.818ZM109.222 103.227L110.531 101.715L110.529 101.714L109.222 103.227ZM106.29 99.8182L105.141 98.1814L103.617 99.251L104.575 100.847L106.29 99.8182ZM110.562 96.8182L112.153 95.6061L110.988 94.076L109.413 95.1814L110.562 96.8182ZM112.403 99L113.897 97.6696L113.891 97.6628L113.885 97.656L112.403 99ZM115.449 101.159L116.31 99.3537L116.3 99.3495L115.449 101.159ZM127.54 100.045L128.733 101.65L127.54 100.045ZM130.29 86.5455H132.29V84.5455H130.29V86.5455ZM129.835 86.5455V84.5455H128.721L128.135 85.4927L129.835 86.5455ZM128.153 88.9091L126.572 87.6847L126.569 87.6884L128.153 88.9091ZM125.062 91.3864L126.005 93.1505L126.012 93.1467L125.062 91.3864ZM112.062 90.4545L111.035 92.1706L111.04 92.1736L112.062 90.4545ZM106.767 84.6364L104.982 85.5393L104.987 85.5477L106.767 84.6364ZM106.722 66.0227L108.529 66.8798L108.531 66.8758L106.722 66.0227ZM111.972 59.8409L113.06 61.5188L113.068 61.5137L111.972 59.8409ZM125.153 58.7727L124.165 60.5116L124.177 60.5183L124.189 60.5247L125.153 58.7727ZM128.244 61.3182L126.641 62.5141L126.652 62.5284L126.663 62.5425L128.244 61.3182ZM129.926 63.6364L128.249 64.7263L128.841 65.6364H129.926V63.6364ZM130.472 63.6364V65.6364H132.472V63.6364H130.472ZM130.472 58.0909V56.0909H128.472V58.0909H130.472ZM135.653 58.0909H137.653V56.0909H135.653V58.0909ZM133.608 101.318L131.989 100.143L131.984 100.151L131.979 100.158L133.608 101.318ZM128.153 105.477L127.436 103.61L127.429 103.613L127.421 103.616L128.153 105.477ZM125.835 86.1591L124.73 84.4924L125.835 86.1591ZM129.222 81.9091L131.067 82.6805V82.6805L129.222 81.9091ZM129.244 68.6136L131.105 67.881L129.244 68.6136ZM125.881 64.0909L124.697 65.7027L125.881 64.0909ZM114.699 64.1818L113.489 62.5895L113.481 62.5954L114.699 64.1818ZM111.312 68.8182L109.45 68.0905L109.445 68.1032L111.312 68.8182ZM111.335 81.7045L109.482 82.4577L109.486 82.4668L109.49 82.4759L111.335 81.7045ZM114.744 86.0682L113.59 87.7012L113.599 87.7078L113.608 87.7143L114.744 86.0682ZM120.562 104.818C118.134 104.818 116.147 104.505 114.554 103.935L113.207 107.701C115.342 108.465 117.809 108.818 120.562 108.818V104.818ZM114.541 103.93C112.868 103.346 111.548 102.596 110.531 101.715L107.912 104.739C109.38 106.01 111.166 106.988 113.221 107.706L114.541 103.93ZM110.529 101.714C109.439 100.772 108.608 99.7947 108.005 98.7892L104.575 100.847C105.426 102.266 106.549 103.561 107.914 104.741L110.529 101.714ZM107.439 101.455L111.712 98.455L109.413 95.1814L105.141 98.1814L107.439 101.455ZM108.972 98.0303C109.501 98.7256 110.155 99.4981 110.922 100.344L113.885 97.656C113.167 96.8655 112.593 96.1835 112.153 95.6061L108.972 98.0303ZM110.91 100.33C111.874 101.412 113.13 102.278 114.597 102.969L116.3 99.3495C115.192 98.8279 114.418 98.2543 113.897 97.6696L110.91 100.33ZM114.588 102.964C116.254 103.759 118.285 104.091 120.562 104.091V100.091C118.628 100.091 117.249 99.8018 116.31 99.3538L114.588 102.964ZM120.562 104.091C123.708 104.091 126.481 103.325 128.733 101.65L126.346 98.4407C124.932 99.4927 123.053 100.091 120.562 100.091V104.091ZM128.733 101.65C131.21 99.8083 132.29 96.9871 132.29 93.6364H128.29C128.29 96.1038 127.536 97.5554 126.346 98.4407L128.733 101.65ZM132.29 93.6364V86.5455H128.29V93.6364H132.29ZM130.29 84.5455H129.835V88.5455H130.29V84.5455ZM128.135 85.4927C127.792 86.046 127.278 86.7725 126.572 87.6847L129.735 90.1334C130.483 89.1669 131.09 88.3177 131.536 87.5982L128.135 85.4927ZM126.569 87.6884C126.073 88.3322 125.288 88.9923 124.113 89.6261L126.012 93.1467C127.534 92.3259 128.809 91.3345 129.738 90.1298L126.569 87.6884ZM124.12 89.6222C123.187 90.1209 121.75 90.4545 119.653 90.4545V94.4545C122.103 94.4545 124.272 94.076 126.005 93.1505L124.12 89.6222ZM119.653 90.4545C117.165 90.4545 114.993 89.8702 113.085 88.7355L111.04 92.1736C113.617 93.7055 116.505 94.4545 119.653 94.4545V90.4545ZM113.09 88.7385C111.216 87.6169 109.698 85.9721 108.547 83.725L104.987 85.5477C106.443 88.3916 108.454 90.6256 111.035 92.1706L113.09 88.7385ZM108.552 83.7334C107.439 81.5341 106.835 78.77 106.835 75.3636H102.835C102.835 79.23 103.519 82.6477 104.982 85.5393L108.552 83.7334ZM106.835 75.3636C106.835 72.0208 107.423 69.2114 108.529 66.8798L104.915 65.1657C103.505 68.1371 102.835 71.555 102.835 75.3636H106.835ZM108.531 66.8758C109.646 64.5099 111.161 62.7503 113.06 61.5188L110.883 58.163C108.297 59.8406 106.312 62.2022 104.913 65.1696L108.531 66.8758ZM113.068 61.5137C114.953 60.2779 117.155 59.6364 119.744 59.6364V55.6364C116.454 55.6364 113.475 56.4645 110.875 58.1682L113.068 61.5137ZM119.744 59.6364C121.826 59.6364 123.244 59.9882 124.165 60.5116L126.141 57.0338C124.396 56.0421 122.208 55.6364 119.744 55.6364V59.6364ZM124.189 60.5247C125.357 61.1682 126.142 61.8449 126.641 62.5141L129.847 60.1223C128.922 58.8823 127.646 57.8621 126.118 57.0207L124.189 60.5247ZM126.663 62.5425C127.375 63.4622 127.898 64.1861 128.249 64.7263L131.603 62.5464C131.166 61.8745 130.568 61.0529 129.826 60.0938L126.663 62.5425ZM129.926 65.6364H130.472V61.6364H129.926V65.6364ZM132.472 63.6364V58.0909H128.472V63.6364H132.472ZM130.472 60.0909H135.653V56.0909H130.472V60.0909ZM133.653 58.0909V94H137.653V58.0909H133.653ZM133.653 94C133.653 96.7013 133.041 98.694 131.989 100.143L135.227 102.493C136.902 100.185 137.653 97.2987 137.653 94H133.653ZM131.979 100.158C130.871 101.714 129.378 102.864 127.436 103.61L128.871 107.344C131.504 106.333 133.648 104.71 135.237 102.478L131.979 100.158ZM127.421 103.616C125.412 104.406 123.135 104.818 120.562 104.818V108.818C123.566 108.818 126.349 108.336 128.885 107.338L127.421 103.616ZM120.381 89.6364C122.843 89.6364 125.065 89.0696 126.941 87.8258L124.73 84.4924C123.635 85.2183 122.222 85.6364 120.381 85.6364V89.6364ZM126.941 87.8258C128.795 86.5957 130.161 84.847 131.067 82.6805L127.376 81.1377C126.737 82.6682 125.845 83.7528 124.73 84.4924L126.941 87.8258ZM131.067 82.6805C131.966 80.5287 132.381 78.0409 132.381 75.2727H128.381C128.381 77.6561 128.022 79.5925 127.376 81.1377L131.067 82.6805ZM132.381 75.2727C132.381 72.5595 131.972 70.083 131.105 67.881L127.383 69.3463C128.032 70.9927 128.381 72.9557 128.381 75.2727H132.381ZM131.105 67.881C130.227 65.65 128.89 63.82 127.065 62.4791L124.697 65.7027C125.841 66.5437 126.747 67.7288 127.383 69.3463L131.105 67.881ZM127.065 62.4791C125.177 61.092 122.908 60.4545 120.381 60.4545V64.4545C122.217 64.4545 123.615 64.908 124.697 65.7027L127.065 62.4791ZM120.381 60.4545C117.758 60.4545 115.416 61.125 113.489 62.5895L115.909 65.7741C117.012 64.9356 118.457 64.4545 120.381 64.4545V60.4545ZM113.481 62.5954C111.663 63.991 110.326 65.8468 109.45 68.0905L113.175 69.5459C113.814 67.9108 114.735 66.6756 115.917 65.7683L113.481 62.5954ZM109.445 68.1032C108.604 70.3001 108.199 72.6981 108.199 75.2727H112.199C112.199 73.1201 112.536 71.2151 113.18 69.5332L109.445 68.1032ZM108.199 75.2727C108.199 77.9035 108.61 80.3112 109.482 82.4577L113.188 80.9514C112.545 79.3706 112.199 77.4904 112.199 75.2727H108.199ZM109.49 82.4759C110.394 84.6382 111.756 86.4044 113.59 87.7012L115.899 84.4352C114.733 83.6108 113.822 82.4679 113.18 80.9332L109.49 82.4759ZM113.608 87.7143C115.525 89.0364 117.822 89.6364 120.381 89.6364V85.6364C118.454 85.6364 116.994 85.1909 115.88 84.422L113.608 87.7143ZM151.403 91.5L150.351 93.2008L150.357 93.2046L150.364 93.2084L151.403 91.5ZM145.79 85.2273L143.989 86.0974L143.995 86.1095L145.79 85.2273ZM145.79 66.3636L143.987 65.4972L143.985 65.5014L145.79 66.3636ZM151.29 59.9545L152.382 61.6302L152.384 61.6285L151.29 59.9545ZM164.949 58.5455L165.596 56.653L164.949 58.5455ZM169.79 61.5L168.422 62.9591L168.43 62.9667L169.79 61.5ZM173.267 66.8636L175.132 66.1406L173.267 66.8636ZM174.562 77.3636V79.3636H176.562V77.3636H174.562ZM147.653 77.3636H145.653V79.3636H147.653V77.3636ZM147.653 72.7273V70.7273H145.653V72.7273H147.653ZM169.108 72.7273V74.7273H171.108V72.7273H169.108ZM167.926 67.4545L166.137 68.349L166.141 68.356L166.144 68.3629L167.926 67.4545ZM164.608 63.7955L163.545 65.4894L163.553 65.4945L164.608 63.7955ZM154.017 64.0455L155.138 65.702L155.141 65.6996L154.017 64.0455ZM150.449 68.1364L148.657 67.2484L150.449 68.1364ZM150.562 83.3409L148.771 84.2294L148.775 84.2383L148.78 84.2472L150.562 83.3409ZM154.403 87.5L153.396 89.2276L153.408 89.2345L154.403 87.5ZM163.926 88.3182L164.581 90.2079L164.588 90.2053L164.596 90.2028L163.926 88.3182ZM166.903 86.5L168.291 87.9402L168.298 87.9337L168.305 87.9271L166.903 86.5ZM168.835 83.4545L169.376 81.529L167.607 81.0326L166.963 82.7523L168.835 83.4545ZM174.017 84.9091L175.927 85.5019L176.536 83.539L174.558 82.9835L174.017 84.9091ZM171.267 89.5455L172.698 90.9432L172.706 90.9349L171.267 89.5455ZM166.494 92.6364L167.211 94.5035L167.224 94.4984L166.494 92.6364ZM160.108 91.7273C157.045 91.7273 154.517 91.0541 152.443 89.7916L150.364 93.2084C153.168 94.9156 156.443 95.7273 160.108 95.7273V91.7273ZM152.456 89.7992C150.367 88.5067 148.746 86.7067 147.585 84.345L143.995 86.1095C145.47 89.1114 147.592 91.4933 150.351 93.2008L152.456 89.7992ZM147.591 84.3572C146.442 81.9792 145.835 79.1504 145.835 75.8182H141.835C141.835 79.6375 142.532 83.0815 143.989 86.0973L147.591 84.3572ZM145.835 75.8182C145.835 72.4867 146.441 69.639 147.594 67.2258L143.985 65.5014C142.532 68.5428 141.835 71.9982 141.835 75.8182H145.835ZM147.592 67.2301C148.766 64.7881 150.366 62.9438 152.382 61.6302L150.198 58.2789C147.517 60.0258 145.45 62.4543 143.987 65.4972L147.592 67.2301ZM152.384 61.6285C154.386 60.32 156.753 59.6364 159.562 59.6364V55.6364C156.069 55.6364 152.921 56.4982 150.195 58.2806L152.384 61.6285ZM159.562 59.6364C161.154 59.6364 162.731 59.9009 164.302 60.4379L165.596 56.653C163.621 55.9779 161.607 55.6364 159.562 55.6364V59.6364ZM164.302 60.4379C165.789 60.9464 167.161 61.7767 168.422 62.9591L171.158 60.0409C169.51 58.496 167.654 57.3566 165.596 56.653L164.302 60.4379ZM168.43 62.9667C169.621 64.0709 170.626 65.5853 171.402 67.5867L175.132 66.1406C174.181 63.6874 172.868 61.6261 171.15 60.0333L168.43 62.9667ZM171.402 67.5867C172.15 69.5162 172.562 71.9966 172.562 75.0909H176.562C176.562 71.6701 176.111 68.6656 175.132 66.1406L171.402 67.5867ZM172.562 75.0909V77.3636H176.562V75.0909H172.562ZM174.562 75.3636H147.653V79.3636H174.562V75.3636ZM149.653 77.3636V72.7273H145.653V77.3636H149.653ZM147.653 74.7273H169.108V70.7273H147.653V74.7273ZM171.108 72.7273C171.108 70.4849 170.658 68.409 169.708 66.5462L166.144 68.3629C166.77 69.591 167.108 71.0302 167.108 72.7273H171.108ZM169.715 66.5601C168.78 64.6907 167.423 63.1896 165.663 62.0965L163.553 65.4945C164.671 66.1892 165.527 67.1275 166.137 68.349L169.715 66.5601ZM165.671 62.1015C163.882 60.9784 161.819 60.4545 159.562 60.4545V64.4545C161.185 64.4545 162.486 64.8246 163.545 65.4894L165.671 62.1015ZM159.562 60.4545C157.08 60.4545 154.828 61.0764 152.893 62.3913L155.141 65.6996C156.328 64.8933 157.772 64.4545 159.562 64.4545V60.4545ZM152.896 62.3889C151.063 63.6294 149.643 65.2586 148.657 67.2484L152.241 69.0243C152.922 67.6505 153.881 66.5524 155.138 65.702L152.896 62.3889ZM148.657 67.2484C147.683 69.2133 147.199 71.3212 147.199 73.5455H151.199C151.199 71.9212 151.548 70.423 152.241 69.0243L148.657 67.2484ZM147.199 73.5455V76.6364H151.199V73.5455H147.199ZM147.199 76.6364C147.199 79.4951 147.691 82.0521 148.771 84.2294L152.354 82.4524C151.616 80.9631 151.199 79.0504 151.199 76.6364H147.199ZM148.78 84.2472C149.864 86.3805 151.402 88.0645 153.396 89.2276L155.411 85.7724C154.132 85.0264 153.109 83.9377 152.345 82.4346L148.78 84.2472ZM153.408 89.2345C155.39 90.3723 157.644 90.9091 160.108 90.9091V86.9091C158.238 86.9091 156.69 86.5065 155.399 85.7655L153.408 89.2345ZM160.108 90.9091C161.703 90.9091 163.202 90.6861 164.581 90.2079L163.271 86.4285C162.378 86.7381 161.331 86.9091 160.108 86.9091V90.9091ZM164.596 90.2028C166 89.7038 167.241 88.9518 168.291 87.9402L165.516 85.0598C164.899 85.6543 164.155 86.1144 163.257 86.4336L164.596 90.2028ZM168.305 87.9271C169.368 86.8834 170.162 85.6121 170.708 84.1568L166.963 82.7523C166.599 83.7212 166.106 84.4803 165.502 85.0729L168.305 87.9271ZM168.295 85.3801L173.477 86.8347L174.558 82.9835L169.376 81.529L168.295 85.3801ZM172.107 84.3163C171.655 85.7728 170.901 87.0459 169.829 88.156L172.706 90.9349C174.209 89.3783 175.288 87.5605 175.927 85.5019L172.107 84.3163ZM169.836 88.1478C168.766 89.2431 167.422 90.1245 165.764 90.7743L167.224 94.4984C169.354 93.6634 171.192 92.4842 172.698 90.9431L169.836 88.1478ZM165.777 90.7693C164.147 91.3955 162.266 91.7273 160.108 91.7273V95.7273C162.677 95.7273 165.054 95.3318 167.211 94.5034L165.777 90.7693ZM182.722 93H180.722V95H182.722V93ZM182.722 58.0909V56.0909H180.722V58.0909H182.722ZM187.903 58.0909H189.903V56.0909H187.903V58.0909ZM187.903 63.3636H185.903V65.3636H187.903V63.3636ZM188.267 63.3636V65.3636H189.662L190.144 64.055L188.267 63.3636ZM191.722 59.1591L190.637 57.4787V57.4787L191.722 59.1591ZM200.176 57.6364H202.176V55.8264L200.375 55.6463L200.176 57.6364ZM200.176 63.0909L199.691 65.0312L202.176 65.6525V63.0909H200.176ZM198.926 62.8864L198.597 64.8592L198.623 64.8635L198.65 64.8672L198.926 62.8864ZM192.358 63.7955L193.293 65.5635L193.3 65.5596L192.358 63.7955ZM189.222 66.7045L187.523 65.6483L187.52 65.654L189.222 66.7045ZM188.085 93V95H190.085V93H188.085ZM184.722 93V58.0909H180.722V93H184.722ZM182.722 60.0909H187.903V56.0909H182.722V60.0909ZM185.903 58.0909V63.3636H189.903V58.0909H185.903ZM187.903 65.3636H188.267V61.3636H187.903V65.3636ZM190.144 64.055C190.618 62.7669 191.474 61.6995 192.806 60.8395L190.637 57.4787C188.636 58.7702 187.188 60.5059 186.39 62.6722L190.144 64.055ZM192.806 60.8395C194.132 59.9839 195.63 59.5455 197.358 59.5455V55.5455C194.904 55.5455 192.645 56.1828 190.637 57.4787L192.806 60.8395ZM197.358 59.5455C197.729 59.5455 198.203 59.5526 198.784 59.5675L198.886 55.5688C198.286 55.5534 197.775 55.5455 197.358 55.5455V59.5455ZM198.784 59.5675C199.362 59.5823 199.75 59.6037 199.977 59.6264L200.375 55.6463C199.997 55.6084 199.49 55.5843 198.886 55.5688L198.784 59.5675ZM198.176 57.6364V63.0909H202.176V57.6364H198.176ZM200.661 61.1506C200.355 61.0741 199.824 60.9923 199.203 60.9056L198.65 64.8672C198.967 64.9115 199.217 64.9489 199.404 64.9794C199.498 64.9947 199.569 65.0073 199.623 65.0174C199.68 65.0283 199.698 65.033 199.691 65.0312L200.661 61.1506ZM199.255 60.9136C198.499 60.7877 197.714 60.7273 196.903 60.7273V64.7273C197.517 64.7273 198.08 64.7729 198.597 64.8592L199.255 60.9136ZM196.903 60.7273C194.919 60.7273 193.073 61.1462 191.416 62.0313L193.3 65.5596C194.31 65.0205 195.494 64.7273 196.903 64.7273V60.7273ZM191.423 62.0274C189.798 62.8865 188.487 64.0992 187.523 65.6483L190.92 67.7608C191.502 66.825 192.281 66.0983 193.293 65.5635L191.423 62.0274ZM187.52 65.654C186.549 67.226 186.085 68.9978 186.085 70.9091H190.085C190.085 69.6688 190.379 68.6377 190.923 67.7551L187.52 65.654ZM186.085 70.9091V93H190.085V70.9091H186.085ZM188.085 91H182.722V95H188.085V91Z" fill="#F8FD11" mask="url(#path-1-outside-1_5_30)"/>
</g>
<mask id="path-3-outside-2_5_30" maskUnits="userSpaceOnUse" x="255" y="42" width="132" height="68" fill="black">
<rect fill="white" x="255" y="42" width="132" height="68"/>
<path d="M258.636 93V46.4545H264.273V69.5455H264.818L285.727 46.4545H293.091L273.545 67.4545L293.091 93H286.273L270.091 71.3636L264.273 77.9091V93H258.636ZM301.847 93V58.0909H307.21V93H301.847ZM304.574 52.2727C303.528 52.2727 302.627 51.9167 301.869 51.2045C301.127 50.4924 300.756 49.6364 300.756 48.6364C300.756 47.6364 301.127 46.7803 301.869 46.0682C302.627 45.3561 303.528 45 304.574 45C305.619 45 306.513 45.3561 307.256 46.0682C308.013 46.7803 308.392 47.6364 308.392 48.6364C308.392 49.6364 308.013 50.4924 307.256 51.2045C306.513 51.9167 305.619 52.2727 304.574 52.2727ZM322.398 72V93H317.034V58.0909H322.216V63.5455H322.67C323.489 61.7727 324.731 60.3485 326.398 59.2727C328.064 58.1818 330.216 57.6364 332.852 57.6364C335.216 57.6364 337.284 58.1212 339.057 59.0909C340.83 60.0455 342.208 61.5 343.193 63.4545C344.178 65.3939 344.67 67.8485 344.67 70.8182V93H339.307V71.1818C339.307 68.4394 338.595 66.303 337.17 64.7727C335.746 63.2273 333.792 62.4545 331.307 62.4545C329.595 62.4545 328.064 62.8258 326.716 63.5682C325.383 64.3106 324.33 65.3939 323.557 66.8182C322.784 68.2424 322.398 69.9697 322.398 72ZM368.562 106.818C365.972 106.818 363.744 106.485 361.881 105.818C360.017 105.167 358.464 104.303 357.222 103.227C355.994 102.167 355.017 101.03 354.29 99.8182L358.562 96.8182C359.047 97.4545 359.661 98.1818 360.403 99C361.146 99.8333 362.161 100.553 363.449 101.159C364.752 101.78 366.456 102.091 368.562 102.091C371.381 102.091 373.706 101.409 375.54 100.045C377.373 98.6818 378.29 96.5455 378.29 93.6364V86.5455H377.835C377.441 87.1818 376.881 87.9697 376.153 88.9091C375.441 89.8333 374.411 90.6591 373.062 91.3864C371.729 92.0985 369.926 92.4545 367.653 92.4545C364.835 92.4545 362.305 91.7879 360.062 90.4545C357.835 89.1212 356.07 87.1818 354.767 84.6364C353.479 82.0909 352.835 79 352.835 75.3636C352.835 71.7879 353.464 68.6742 354.722 66.0227C355.979 63.3561 357.729 61.2955 359.972 59.8409C362.214 58.3712 364.805 57.6364 367.744 57.6364C370.017 57.6364 371.82 58.0152 373.153 58.7727C374.502 59.5152 375.532 60.3636 376.244 61.3182C376.972 62.2576 377.532 63.0303 377.926 63.6364H378.472V58.0909H383.653V94C383.653 97 382.972 99.4394 381.608 101.318C380.259 103.212 378.441 104.598 376.153 105.477C373.881 106.371 371.35 106.818 368.562 106.818ZM368.381 87.6364C370.532 87.6364 372.35 87.1439 373.835 86.1591C375.32 85.1742 376.449 83.7576 377.222 81.9091C377.994 80.0606 378.381 77.8485 378.381 75.2727C378.381 72.7576 378.002 70.5379 377.244 68.6136C376.487 66.6894 375.366 65.1818 373.881 64.0909C372.396 63 370.563 62.4545 368.381 62.4545C366.108 62.4545 364.214 63.0303 362.699 64.1818C361.199 65.3333 360.07 66.8788 359.312 68.8182C358.57 70.7576 358.199 72.9091 358.199 75.2727C358.199 77.697 358.578 79.8409 359.335 81.7045C360.108 83.553 361.244 85.0076 362.744 86.0682C364.259 87.1136 366.138 87.6364 368.381 87.6364Z"/>
</mask>
<path d="M258.636 93V46.4545H264.273V69.5455H264.818L285.727 46.4545H293.091L273.545 67.4545L293.091 93H286.273L270.091 71.3636L264.273 77.9091V93H258.636ZM301.847 93V58.0909H307.21V93H301.847ZM304.574 52.2727C303.528 52.2727 302.627 51.9167 301.869 51.2045C301.127 50.4924 300.756 49.6364 300.756 48.6364C300.756 47.6364 301.127 46.7803 301.869 46.0682C302.627 45.3561 303.528 45 304.574 45C305.619 45 306.513 45.3561 307.256 46.0682C308.013 46.7803 308.392 47.6364 308.392 48.6364C308.392 49.6364 308.013 50.4924 307.256 51.2045C306.513 51.9167 305.619 52.2727 304.574 52.2727ZM322.398 72V93H317.034V58.0909H322.216V63.5455H322.67C323.489 61.7727 324.731 60.3485 326.398 59.2727C328.064 58.1818 330.216 57.6364 332.852 57.6364C335.216 57.6364 337.284 58.1212 339.057 59.0909C340.83 60.0455 342.208 61.5 343.193 63.4545C344.178 65.3939 344.67 67.8485 344.67 70.8182V93H339.307V71.1818C339.307 68.4394 338.595 66.303 337.17 64.7727C335.746 63.2273 333.792 62.4545 331.307 62.4545C329.595 62.4545 328.064 62.8258 326.716 63.5682C325.383 64.3106 324.33 65.3939 323.557 66.8182C322.784 68.2424 322.398 69.9697 322.398 72ZM368.562 106.818C365.972 106.818 363.744 106.485 361.881 105.818C360.017 105.167 358.464 104.303 357.222 103.227C355.994 102.167 355.017 101.03 354.29 99.8182L358.562 96.8182C359.047 97.4545 359.661 98.1818 360.403 99C361.146 99.8333 362.161 100.553 363.449 101.159C364.752 101.78 366.456 102.091 368.562 102.091C371.381 102.091 373.706 101.409 375.54 100.045C377.373 98.6818 378.29 96.5455 378.29 93.6364V86.5455H377.835C377.441 87.1818 376.881 87.9697 376.153 88.9091C375.441 89.8333 374.411 90.6591 373.062 91.3864C371.729 92.0985 369.926 92.4545 367.653 92.4545C364.835 92.4545 362.305 91.7879 360.062 90.4545C357.835 89.1212 356.07 87.1818 354.767 84.6364C353.479 82.0909 352.835 79 352.835 75.3636C352.835 71.7879 353.464 68.6742 354.722 66.0227C355.979 63.3561 357.729 61.2955 359.972 59.8409C362.214 58.3712 364.805 57.6364 367.744 57.6364C370.017 57.6364 371.82 58.0152 373.153 58.7727C374.502 59.5152 375.532 60.3636 376.244 61.3182C376.972 62.2576 377.532 63.0303 377.926 63.6364H378.472V58.0909H383.653V94C383.653 97 382.972 99.4394 381.608 101.318C380.259 103.212 378.441 104.598 376.153 105.477C373.881 106.371 371.35 106.818 368.562 106.818ZM368.381 87.6364C370.532 87.6364 372.35 87.1439 373.835 86.1591C375.32 85.1742 376.449 83.7576 377.222 81.9091C377.994 80.0606 378.381 77.8485 378.381 75.2727C378.381 72.7576 378.002 70.5379 377.244 68.6136C376.487 66.6894 375.366 65.1818 373.881 64.0909C372.396 63 370.563 62.4545 368.381 62.4545C366.108 62.4545 364.214 63.0303 362.699 64.1818C361.199 65.3333 360.07 66.8788 359.312 68.8182C358.57 70.7576 358.199 72.9091 358.199 75.2727C358.199 77.697 358.578 79.8409 359.335 81.7045C360.108 83.553 361.244 85.0076 362.744 86.0682C364.259 87.1136 366.138 87.6364 368.381 87.6364Z" fill="#0CD714"/>
<path d="M258.636 93H255.636V96H258.636V93ZM258.636 46.4545V43.4545H255.636V46.4545H258.636ZM264.273 46.4545H267.273V43.4545H264.273V46.4545ZM264.273 69.5455H261.273V72.5455H264.273V69.5455ZM264.818 69.5455V72.5455H266.149L267.042 71.5591L264.818 69.5455ZM285.727 46.4545V43.4545H284.397L283.503 44.4409L285.727 46.4545ZM293.091 46.4545L295.287 48.4984L299.981 43.4545H293.091V46.4545ZM273.545 67.4545L271.349 65.4106L269.623 67.2653L271.163 69.2775L273.545 67.4545ZM293.091 93V96H299.164L295.474 91.177L293.091 93ZM286.273 93L283.87 94.7968L284.77 96H286.273V93ZM270.091 71.3636L272.493 69.5669L270.291 66.6226L267.849 69.3705L270.091 71.3636ZM264.273 77.9091L262.031 75.916L261.273 76.7685V77.9091H264.273ZM264.273 93V96H267.273V93H264.273ZM261.636 93V46.4545H255.636V93H261.636ZM258.636 49.4545H264.273V43.4545H258.636V49.4545ZM261.273 46.4545V69.5455H267.273V46.4545H261.273ZM264.273 72.5455H264.818V66.5455H264.273V72.5455ZM267.042 71.5591L287.951 48.4682L283.503 44.4409L262.594 67.5318L267.042 71.5591ZM285.727 49.4545H293.091V43.4545H285.727V49.4545ZM290.895 44.4106L271.349 65.4106L275.741 69.4984L295.287 48.4984L290.895 44.4106ZM271.163 69.2775L290.708 94.823L295.474 91.177L275.928 65.6316L271.163 69.2775ZM293.091 90H286.273V96H293.091V90ZM288.675 91.2032L272.493 69.5669L267.688 73.1604L283.87 94.7968L288.675 91.2032ZM267.849 69.3705L262.031 75.916L266.515 79.9022L272.333 73.3567L267.849 69.3705ZM261.273 77.9091V93H267.273V77.9091H261.273ZM264.273 90H258.636V96H264.273V90ZM301.847 93H298.847V96H301.847V93ZM301.847 58.0909V55.0909H298.847V58.0909H301.847ZM307.21 58.0909H310.21V55.0909H307.21V58.0909ZM307.21 93V96H310.21V93H307.21ZM301.869 51.2045L299.793 53.3696L299.804 53.3801L299.815 53.3904L301.869 51.2045ZM301.869 46.0682L299.815 43.8823L299.804 43.8927L299.793 43.9031L301.869 46.0682ZM307.256 46.0682L305.179 48.2332L305.19 48.2437L305.201 48.2541L307.256 46.0682ZM307.256 51.2045L305.201 49.0187L305.19 49.029L305.179 49.0395L307.256 51.2045ZM304.847 93V58.0909H298.847V93H304.847ZM301.847 61.0909H307.21V55.0909H301.847V61.0909ZM304.21 58.0909V93H310.21V58.0909H304.21ZM307.21 90H301.847V96H307.21V90ZM304.574 49.2727C304.287 49.2727 304.122 49.2046 303.924 49.0187L299.815 53.3904C301.132 54.6287 302.77 55.2727 304.574 55.2727V49.2727ZM303.946 49.0395C303.833 48.9308 303.798 48.8616 303.786 48.8349C303.776 48.81 303.756 48.7556 303.756 48.6364H297.756C297.756 50.4798 298.479 52.11 299.793 53.3696L303.946 49.0395ZM303.756 48.6364C303.756 48.5171 303.776 48.4627 303.786 48.4378C303.798 48.4111 303.833 48.3419 303.946 48.2332L299.793 43.9031C298.479 45.1627 297.756 46.7929 297.756 48.6364H303.756ZM303.924 48.2541C304.122 48.0681 304.287 48 304.574 48V42C302.77 42 301.132 42.644 299.815 43.8823L303.924 48.2541ZM304.574 48C304.859 48 305.005 48.0665 305.179 48.2332L309.332 43.9031C308.021 42.6456 306.379 42 304.574 42V48ZM305.201 48.2541C305.32 48.3659 305.354 48.4356 305.365 48.4582C305.373 48.4783 305.392 48.5255 305.392 48.6364H311.392C311.392 46.7722 310.644 45.136 309.31 43.8823L305.201 48.2541ZM305.392 48.6364C305.392 48.7472 305.373 48.7944 305.365 48.8145C305.354 48.8372 305.32 48.9068 305.201 49.0187L309.31 53.3904C310.644 52.1367 311.392 50.5006 311.392 48.6364H305.392ZM305.179 49.0395C305.005 49.2062 304.859 49.2727 304.574 49.2727V55.2727C306.379 55.2727 308.021 54.6271 309.332 53.3696L305.179 49.0395ZM322.398 93V96H325.398V93H322.398ZM317.034 93H314.034V96H317.034V93ZM317.034 58.0909V55.0909H314.034V58.0909H317.034ZM322.216 58.0909H325.216V55.0909H322.216V58.0909ZM322.216 63.5455H319.216V66.5455H322.216V63.5455ZM322.67 63.5455V66.5455H324.59L325.394 64.8026L322.67 63.5455ZM326.398 59.2727L328.025 61.7933L328.033 61.7881L328.041 61.7828L326.398 59.2727ZM339.057 59.0909L337.617 61.7229L337.626 61.7276L337.635 61.7323L339.057 59.0909ZM343.193 63.4545L340.514 64.8045L340.518 64.8129L343.193 63.4545ZM344.67 93V96H347.67V93H344.67ZM339.307 93H336.307V96H339.307V93ZM337.17 64.7727L334.964 66.8058L334.969 66.8112L334.974 66.8166L337.17 64.7727ZM326.716 63.5682L325.269 60.9402L325.263 60.9436L325.256 60.9471L326.716 63.5682ZM323.557 66.8182L320.92 65.3875L323.557 66.8182ZM319.398 72V93H325.398V72H319.398ZM322.398 90H317.034V96H322.398V90ZM320.034 93V58.0909H314.034V93H320.034ZM317.034 61.0909H322.216V55.0909H317.034V61.0909ZM319.216 58.0909V63.5455H325.216V58.0909H319.216ZM322.216 66.5455H322.67V60.5455H322.216V66.5455ZM325.394 64.8026C325.97 63.5552 326.828 62.5657 328.025 61.7933L324.771 56.7522C322.634 58.1313 321.007 59.9902 319.947 62.2883L325.394 64.8026ZM328.041 61.7828C329.084 61.0998 330.614 60.6364 332.852 60.6364V54.6364C329.817 54.6364 327.045 55.2638 324.755 56.7626L328.041 61.7828ZM332.852 60.6364C334.799 60.6364 336.355 61.0327 337.617 61.7229L340.497 56.4589C338.213 55.2097 335.633 54.6364 332.852 54.6364V60.6364ZM337.635 61.7323C338.818 62.3698 339.781 63.3489 340.514 64.8045L345.872 62.1046C344.636 59.6511 342.841 57.7211 340.479 56.4495L337.635 61.7323ZM340.518 64.8129C341.226 66.2064 341.67 68.1569 341.67 70.8182H347.67C347.67 67.5401 347.13 64.5815 345.868 62.0962L340.518 64.8129ZM341.67 70.8182V93H347.67V70.8182H341.67ZM344.67 90H339.307V96H344.67V90ZM342.307 93V71.1818H336.307V93H342.307ZM342.307 71.1818C342.307 67.9241 341.452 64.9698 339.367 62.7289L334.974 66.8166C335.737 67.6362 336.307 68.9547 336.307 71.1818H342.307ZM339.377 62.7397C337.28 60.4653 334.463 59.4545 331.307 59.4545V65.4545C333.12 65.4545 334.212 65.9893 334.964 66.8058L339.377 62.7397ZM331.307 59.4545C329.147 59.4545 327.109 59.9272 325.269 60.9402L328.163 66.1962C329.02 65.7243 330.043 65.4545 331.307 65.4545V59.4545ZM325.256 60.9471C323.394 61.9839 321.947 63.4951 320.92 65.3875L326.194 68.2488C326.712 67.2927 327.371 66.6373 328.175 66.1892L325.256 60.9471ZM320.92 65.3875C319.856 67.3485 319.398 69.5942 319.398 72H325.398C325.398 70.3452 325.712 69.1363 326.194 68.2488L320.92 65.3875ZM361.881 105.818L362.891 102.993L362.881 102.99L362.871 102.986L361.881 105.818ZM357.222 103.227L359.185 100.959L359.183 100.957L357.222 103.227ZM354.29 99.8182L352.566 97.3629L350.281 98.9674L351.717 101.362L354.29 99.8182ZM358.562 96.8182L360.949 95.0001L359.2 92.7049L356.839 94.3629L358.562 96.8182ZM360.403 99L362.643 97.0044L362.634 96.9942L362.625 96.984L360.403 99ZM363.449 101.159L364.74 98.4511L364.733 98.4478L364.726 98.4446L363.449 101.159ZM375.54 100.045L377.33 102.453L375.54 100.045ZM378.29 86.5455H381.29V83.5455H378.29V86.5455ZM377.835 86.5455V83.5455H376.164L375.284 84.9664L377.835 86.5455ZM376.153 88.9091L373.781 87.0726L373.777 87.0781L376.153 88.9091ZM373.062 91.3864L374.476 94.0326L374.487 94.0268L373.062 91.3864ZM360.062 90.4545L358.522 93.0286L358.529 93.0332L360.062 90.4545ZM354.767 84.6364L352.09 85.9907L352.093 85.9971L352.097 86.0034L354.767 84.6364ZM354.722 66.0227L357.432 67.3083L357.435 67.3023L354.722 66.0227ZM359.972 59.8409L361.604 62.3578L361.61 62.3539L361.616 62.35L359.972 59.8409ZM373.153 58.7727L371.671 61.3811L371.689 61.391L371.707 61.4008L373.153 58.7727ZM376.244 61.3182L373.84 63.1121L373.856 63.1335L373.872 63.1547L376.244 61.3182ZM377.926 63.6364L375.411 65.2713L376.298 66.6364H377.926V63.6364ZM378.472 63.6364V66.6364H381.472V63.6364H378.472ZM378.472 58.0909V55.0909H375.472V58.0909H378.472ZM383.653 58.0909H386.653V55.0909H383.653V58.0909ZM381.608 101.318L379.18 99.556L379.172 99.567L379.164 99.5782L381.608 101.318ZM376.153 105.477L375.078 102.677L375.066 102.681L375.055 102.685L376.153 105.477ZM373.835 86.1591L372.177 83.659L373.835 86.1591ZM377.222 81.9091L379.989 83.0662L377.222 81.9091ZM377.244 68.6136L380.036 67.5146V67.5146L377.244 68.6136ZM373.881 64.0909L372.104 66.5086L373.881 64.0909ZM362.699 64.1818L360.884 61.7933L360.878 61.7977L360.872 61.8022L362.699 64.1818ZM359.312 68.8182L356.518 67.7266L356.514 67.7361L356.511 67.7456L359.312 68.8182ZM359.335 81.7045L356.556 82.8343L356.562 82.848L356.567 82.8616L359.335 81.7045ZM362.744 86.0682L361.012 88.5177L361.026 88.5276L361.041 88.5374L362.744 86.0682ZM368.562 103.818C366.215 103.818 364.348 103.515 362.891 102.993L360.87 108.643C363.141 109.455 365.728 109.818 368.562 109.818V103.818ZM362.871 102.986C361.294 102.435 360.09 101.743 359.185 100.959L355.258 105.495C356.838 106.863 358.74 107.898 360.891 108.65L362.871 102.986ZM359.183 100.957C358.162 100.075 357.404 99.1769 356.862 98.2747L351.717 101.362C352.631 102.884 353.827 104.258 355.26 105.497L359.183 100.957ZM356.014 102.273L360.286 99.2734L356.839 94.3629L352.566 97.3629L356.014 102.273ZM356.176 98.6363C356.728 99.3611 357.402 100.156 358.182 101.016L362.625 96.984C361.92 96.2074 361.366 95.548 360.949 95.0001L356.176 98.6363ZM358.163 100.996C359.238 102.202 360.614 103.141 362.171 103.874L364.726 98.4446C363.708 97.9653 363.054 97.4649 362.643 97.0044L358.163 100.996ZM362.158 103.867C364.006 104.748 366.199 105.091 368.562 105.091V99.0909C366.714 99.0909 365.498 98.8126 364.74 98.4511L362.158 103.867ZM368.562 105.091C371.872 105.091 374.868 104.284 377.33 102.453L373.749 97.6383C372.544 98.5346 370.889 99.0909 368.562 99.0909V105.091ZM377.33 102.453C380.128 100.372 381.29 97.2079 381.29 93.6364H375.29C375.29 95.883 374.618 96.9921 373.749 97.6383L377.33 102.453ZM381.29 93.6364V86.5455H375.29V93.6364H381.29ZM378.29 83.5455H377.835V89.5455H378.29V83.5455ZM375.284 84.9664C374.968 85.478 374.477 86.174 373.781 87.0726L378.526 90.7456C379.284 89.7654 379.915 88.8856 380.386 88.1245L375.284 84.9664ZM373.777 87.0781C373.389 87.5816 372.727 88.1589 371.638 88.7459L374.487 94.0268C376.095 93.1593 377.494 92.0851 378.53 90.7401L373.777 87.0781ZM371.649 88.7401C370.915 89.1321 369.661 89.4545 367.653 89.4545V95.4545C370.191 95.4545 372.543 95.0648 374.476 94.0326L371.649 88.7401ZM367.653 89.4545C365.33 89.4545 363.337 88.9114 361.596 87.8759L358.529 93.0332C361.273 94.6643 364.34 95.4545 367.653 95.4545V89.4545ZM361.603 87.8805C359.907 86.8647 358.511 85.3672 357.437 83.2693L352.097 86.0034C353.629 88.9965 355.764 91.3777 358.522 93.0286L361.603 87.8805ZM357.444 83.282C356.419 81.2557 355.835 78.655 355.835 75.3636H349.835C349.835 79.345 350.54 82.9261 352.09 85.9907L357.444 83.282ZM355.835 75.3636C355.835 72.1372 356.402 69.48 357.432 67.3083L352.011 64.7371C350.526 67.8685 349.835 71.4385 349.835 75.3636H355.835ZM357.435 67.3023C358.48 65.0869 359.878 63.4777 361.604 62.3578L358.339 57.324C355.581 59.1132 353.479 61.6252 352.008 64.7431L357.435 67.3023ZM361.616 62.35C363.323 61.2313 365.331 60.6364 367.744 60.6364V54.6364C364.279 54.6364 361.105 55.5112 358.327 57.3318L361.616 62.35ZM367.744 60.6364C369.73 60.6364 370.956 60.9748 371.671 61.3811L374.635 56.1644C372.684 55.0555 370.304 54.6364 367.744 54.6364V60.6364ZM371.707 61.4008C372.785 61.9947 373.447 62.5856 373.84 63.1121L378.649 59.5243C377.617 58.1417 376.219 57.0356 374.6 56.1447L371.707 61.4008ZM373.872 63.1547C374.577 64.0645 375.081 64.764 375.411 65.2713L380.441 62.0014C379.983 61.2966 379.367 60.4506 378.616 59.4817L373.872 63.1547ZM377.926 66.6364H378.472V60.6364H377.926V66.6364ZM381.472 63.6364V58.0909H375.472V63.6364H381.472ZM378.472 61.0909H383.653V55.0909H378.472V61.0909ZM380.653 58.0909V94H386.653V58.0909H380.653ZM380.653 94C380.653 96.552 380.076 98.3213 379.18 99.556L384.036 103.08C385.867 100.557 386.653 97.448 386.653 94H380.653ZM379.164 99.5782C378.177 100.965 376.847 101.997 375.078 102.677L377.229 108.278C380.036 107.2 382.342 105.459 384.052 103.058L379.164 99.5782ZM375.055 102.685C373.178 103.424 371.027 103.818 368.562 103.818V109.818C371.674 109.818 374.583 109.319 377.252 108.269L375.055 102.685ZM368.381 90.6364C370.998 90.6364 373.423 90.0324 375.493 88.6592L372.177 83.659C371.278 84.2555 370.066 84.6364 368.381 84.6364V90.6364ZM375.493 88.6592C377.533 87.3064 379.017 85.3917 379.989 83.0662L374.454 80.752C373.88 82.1235 373.107 83.0421 372.177 83.659L375.493 88.6592ZM379.989 83.0662C380.952 80.7627 381.381 78.1371 381.381 75.2727H375.381C375.381 77.5599 375.036 79.3585 374.454 80.752L379.989 83.0662ZM381.381 75.2727C381.381 72.4604 380.957 69.8556 380.036 67.5146L374.453 69.7126C375.046 71.2202 375.381 73.0547 375.381 75.2727H381.381ZM380.036 67.5146C379.097 65.1302 377.652 63.139 375.657 61.6733L372.104 66.5086C373.079 67.2246 373.876 68.2485 374.453 69.7126L380.036 67.5146ZM375.657 61.6733C373.567 60.1381 371.08 59.4545 368.381 59.4545V65.4545C370.045 65.4545 371.224 65.8619 372.104 66.5086L375.657 61.6733ZM368.381 59.4545C365.584 59.4545 363.017 60.1723 360.884 61.7933L364.514 66.5703C365.412 65.8883 366.632 65.4545 368.381 65.4545V59.4545ZM360.872 61.8022C358.895 63.3199 357.454 65.3308 356.518 67.7266L362.107 69.9097C362.686 68.4268 363.503 67.3468 364.526 66.5615L360.872 61.8022ZM356.511 67.7456C355.62 70.0714 355.199 72.5926 355.199 75.2727H361.199C361.199 73.2255 361.52 71.4438 362.114 69.8907L356.511 67.7456ZM355.199 75.2727C355.199 78.0068 355.626 80.5464 356.556 82.8343L362.114 80.5748C361.529 79.1354 361.199 77.3872 361.199 75.2727H355.199ZM356.567 82.8616C357.537 85.1808 359.011 87.1028 361.012 88.5177L364.476 83.6186C363.477 82.9124 362.679 81.9253 362.103 80.5475L356.567 82.8616ZM361.041 88.5374C363.157 89.9978 365.664 90.6364 368.381 90.6364V84.6364C366.612 84.6364 365.362 84.2295 364.448 83.5989L361.041 88.5374Z" fill="#0CD714" mask="url(#path-3-outside-2_5_30)"/>
<defs>
<filter id="filter0_d_5_30" x="1.63637" y="46.4545" width="202.54" height="68.3636" filterUnits="userSpaceOnUse" color-interpolation-filters="sRGB">
<feFlood flood-opacity="0" result="BackgroundImageFix"/>
<feColorMatrix in="SourceAlpha" type="matrix" values="0 0 0 0 0 0 0 0 0 0 0 0 0 0 0 0 0 0 127 0" result="hardAlpha"/>
<feOffset dy="4"/>
<feGaussianBlur stdDeviation="2"/>
<feComposite in2="hardAlpha" operator="out"/>
<feColorMatrix type="matrix" values="0 0 0 0 0 0 0 0 0 0 0 0 0 0 0 0 0 0 0.25 0"/>
<feBlend mode="normal" in2="BackgroundImageFix" result="effect1_dropShadow_5_30"/>
<feBlend mode="normal" in="SourceGraphic" in2="effect1_dropShadow_5_30" result="shape"/>
</filter>
</defs>
</svg>
